<svg width="152" height="46" viewBox="0 0 152 46" fill="none" xmlns="http://www.w3.org/2000/svg">
<rect width="152" height="46" rx="13" fill="url(#paint0_linear_826_9)"/>
<path d="M18.596 33L9.972 13.4H12.996L20.92 31.488H19.184L27.164 13.4H29.964L21.368 33H18.596ZM32.4634 33V13.4H40.1074C41.8248 13.4 43.2901 13.6707 44.5034 14.212C45.7168 14.7533 46.6501 15.5373 47.3034 16.564C47.9568 17.5907 48.2834 18.8133 48.2834 20.232C48.2834 21.6507 47.9568 22.8733 47.3034 23.9C46.6501 24.908 45.7168 25.6827 44.5034 26.224C43.2901 26.7653 41.8248 27.036 40.1074 27.036H34.0034L35.2634 25.748V33H32.4634ZM45.5674 33L40.5834 25.888H43.5794L48.6194 33H45.5674ZM35.2634 26.028L34.0034 24.656H40.0234C41.8154 24.656 43.1688 24.2733 44.0834 23.508C45.0168 22.724 45.4834 21.632 45.4834 20.232C45.4834 18.832 45.0168 17.7493 44.0834 16.984C43.1688 16.2187 41.8154 15.836 40.0234 15.836H34.0034L35.2634 14.436V26.028ZM60.8407 33.152C59.8274 33.152 58.8584 33 57.9337 32.696C57.0091 32.3793 56.2807 31.974 55.7487 31.48L56.4517 29.998C56.9584 30.4413 57.6044 30.8087 58.3897 31.1C59.1751 31.3913 59.9921 31.537 60.8407 31.537C61.6134 31.537 62.2404 31.4483 62.7217 31.271C63.2031 31.0937 63.5577 30.853 63.7857 30.549C64.0137 30.2323 64.1277 29.8777 64.1277 29.485C64.1277 29.029 63.9757 28.6617 63.6717 28.383C63.3804 28.1043 62.9941 27.8827 62.5127 27.718C62.0441 27.5407 61.5247 27.3887 60.9547 27.262C60.3847 27.1353 59.8084 26.9897 59.2257 26.825C58.6557 26.6477 58.1301 26.426 57.6487 26.16C57.1801 25.894 56.8001 25.5393 56.5087 25.096C56.2174 24.64 56.0717 24.0573 56.0717 23.348C56.0717 22.664 56.2491 22.037 56.6037 21.467C56.9711 20.8843 57.5284 20.422 58.2757 20.08C59.0357 19.7253 59.9984 19.548 61.1637 19.548C61.9364 19.548 62.7027 19.6493 63.4627 19.852C64.2227 20.0547 64.8814 20.346 65.4387 20.726L64.8117 22.246C64.2417 21.866 63.6401 21.5937 63.0067 21.429C62.3734 21.2517 61.7591 21.163 61.1637 21.163C60.4164 21.163 59.8021 21.258 59.3207 21.448C58.8394 21.638 58.4847 21.8913 58.2567 22.208C58.0414 22.5247 57.9337 22.8793 57.9337 23.272C57.9337 23.7407 58.0794 24.1143 58.3707 24.393C58.6747 24.6717 59.0611 24.8933 59.5297 25.058C60.0111 25.2227 60.5367 25.3747 61.1067 25.514C61.6767 25.6407 62.2467 25.7863 62.8167 25.951C63.3994 26.1157 63.9251 26.331 64.3937 26.597C64.8751 26.863 65.2614 27.2177 65.5527 27.661C65.8441 28.1043 65.9897 28.6743 65.9897 29.371C65.9897 30.0423 65.8061 30.6693 65.4387 31.252C65.0714 31.822 64.5014 32.2843 63.7287 32.639C62.9687 32.981 62.0061 33.152 60.8407 33.152ZM71.9575 33.114C70.9442 33.114 70.1588 32.8417 69.6015 32.297C69.0442 31.7523 68.7655 30.9733 68.7655 29.96V20.726H70.5895V29.884C70.5895 30.4287 70.7225 30.8467 70.9885 31.138C71.2672 31.4293 71.6598 31.575 72.1665 31.575C72.7365 31.575 73.2115 31.4167 73.5915 31.1L74.1615 32.411C73.8828 32.6517 73.5472 32.829 73.1545 32.943C72.7745 33.057 72.3755 33.114 71.9575 33.114ZM67.0555 24.431V22.93H73.4775V24.431H67.0555ZM80.6037 33.114C79.7424 33.114 78.9824 32.9557 78.3237 32.639C77.6777 32.3223 77.171 31.841 76.8037 31.195C76.449 30.5363 76.2717 29.713 76.2717 28.725V22.93H78.0957V28.516C78.0957 29.504 78.33 30.245 78.7987 30.739C79.28 31.233 79.9514 31.48 80.8127 31.48C81.446 31.48 81.997 31.3533 82.4657 31.1C82.9344 30.834 83.2954 30.454 83.5487 29.96C83.802 29.4533 83.9287 28.8453 83.9287 28.136V22.93H85.7527V33H84.0237V30.283L84.3087 31.005C83.9794 31.6763 83.4854 32.1957 82.8267 32.563C82.168 32.9303 81.427 33.114 80.6037 33.114ZM93.3861 33.114C92.4108 33.114 91.5368 32.8987 90.7641 32.468C90.0041 32.0373 89.4024 31.4357 88.9591 30.663C88.5158 29.8903 88.2941 28.991 88.2941 27.965C88.2941 26.939 88.5158 26.046 88.9591 25.286C89.4024 24.5133 90.0041 23.9117 90.7641 23.481C91.5368 23.0503 92.4108 22.835 93.3861 22.835C94.2348 22.835 95.0011 23.025 95.6851 23.405C96.3691 23.785 96.9138 24.355 97.3191 25.115C97.7371 25.875 97.9461 26.825 97.9461 27.965C97.9461 29.105 97.7434 30.055 97.3381 30.815C96.9454 31.575 96.4071 32.1513 95.7231 32.544C95.0391 32.924 94.2601 33.114 93.3861 33.114ZM93.5381 31.518C94.1714 31.518 94.7414 31.3723 95.2481 31.081C95.7674 30.7897 96.1728 30.378 96.4641 29.846C96.7681 29.3013 96.9201 28.6743 96.9201 27.965C96.9201 27.243 96.7681 26.6223 96.4641 26.103C96.1728 25.571 95.7674 25.1593 95.2481 24.868C94.7414 24.5767 94.1714 24.431 93.5381 24.431C92.8921 24.431 92.3158 24.5767 91.8091 24.868C91.3024 25.1593 90.8971 25.571 90.5931 26.103C90.2891 26.6223 90.1371 27.243 90.1371 27.965C90.1371 28.6743 90.2891 29.3013 90.5931 29.846C90.8971 30.378 91.3024 30.7897 91.8091 31.081C92.3158 31.3723 92.8921 31.518 93.5381 31.518ZM96.9771 33V30.283L97.0911 27.946L96.9011 25.609V18.902H98.7251V33H96.9771ZM102.176 33V22.93H104V33H102.176ZM103.088 20.992C102.734 20.992 102.436 20.878 102.195 20.65C101.967 20.422 101.853 20.1433 101.853 19.814C101.853 19.472 101.967 19.187 102.195 18.959C102.436 18.731 102.734 18.617 103.088 18.617C103.443 18.617 103.734 18.731 103.962 18.959C104.203 19.1743 104.323 19.4467 104.323 19.776C104.323 20.118 104.209 20.4093 103.981 20.65C103.753 20.878 103.456 20.992 103.088 20.992ZM111.796 33.114C110.783 33.114 109.883 32.8923 109.098 32.449C108.313 32.0057 107.692 31.3977 107.236 30.625C106.78 29.8397 106.552 28.953 106.552 27.965C106.552 26.9643 106.78 26.0777 107.236 25.305C107.692 24.5323 108.313 23.9307 109.098 23.5C109.883 23.0567 110.783 22.835 111.796 22.835C112.797 22.835 113.69 23.0567 114.475 23.5C115.273 23.9307 115.894 24.5323 116.337 25.305C116.793 26.065 117.021 26.9517 117.021 27.965C117.021 28.9657 116.793 29.8523 116.337 30.625C115.894 31.3977 115.273 32.0057 114.475 32.449C113.69 32.8923 112.797 33.114 111.796 33.114ZM111.796 31.518C112.442 31.518 113.018 31.3723 113.525 31.081C114.044 30.7897 114.45 30.378 114.741 29.846C115.032 29.3013 115.178 28.6743 115.178 27.965C115.178 27.243 115.032 26.6223 114.741 26.103C114.45 25.571 114.044 25.1593 113.525 24.868C113.018 24.5767 112.442 24.431 111.796 24.431C111.15 24.431 110.574 24.5767 110.067 24.868C109.56 25.1593 109.155 25.571 108.851 26.103C108.547 26.6223 108.395 27.243 108.395 27.965C108.395 28.6743 108.547 29.3013 108.851 29.846C109.155 30.378 109.56 30.7897 110.067 31.081C110.574 31.3723 111.15 31.518 111.796 31.518ZM123.164 33L128.693 25.457V26.92L123.468 19.7H125.634L129.776 25.381L128.921 25.4L133.044 19.7H135.115L129.928 26.806V25.438L135.457 33H133.272L128.864 26.939H129.7L125.349 33H123.164Z" fill="#1E1E1E"/>
<defs>
<linearGradient id="paint0_linear_826_9" x1="0" y1="23" x2="152" y2="23" gradientUnits="userSpaceOnUse">
<stop stop-color="#FAD36F"/>
<stop offset="1" stop-color="#E0FF1F"/>
</linearGradient>
</defs>
</svg>
