<svg width="142" height="46" viewBox="0 0 142 46" fill="none" xmlns="http://www.w3.org/2000/svg">
<rect width="47" height="46" rx="13" fill="url(#paint0_linear_828_11)"/>
<path d="M11.6878 33L3.0638 13.4H6.0878L14.0118 31.488H12.2758L20.2558 13.4H23.0558L14.4598 33H11.6878ZM25.5552 33V13.4H33.1992C34.9166 13.4 36.3819 13.6707 37.5952 14.212C38.8086 14.7533 39.7419 15.5373 40.3952 16.564C41.0486 17.5907 41.3752 18.8133 41.3752 20.232C41.3752 21.6507 41.0486 22.8733 40.3952 23.9C39.7419 24.908 38.8086 25.6827 37.5952 26.224C36.3819 26.7653 34.9166 27.036 33.1992 27.036H27.0952L28.3552 25.748V33H25.5552ZM38.6592 33L33.6752 25.888H36.6712L41.7112 33H38.6592ZM28.3552 26.028L27.0952 24.656H33.1152C34.9072 24.656 36.2606 24.2733 37.1752 23.508C38.1086 22.724 38.5752 21.632 38.5752 20.232C38.5752 18.832 38.1086 17.7493 37.1752 16.984C36.2606 16.2187 34.9072 15.836 33.1152 15.836H27.0952L28.3552 14.436V26.028Z" fill="#1E1E1E"/>
<path d="M59.9735 33.152C58.9602 33.152 57.9912 33 57.0665 32.696C56.1419 32.3793 55.4135 31.974 54.8815 31.48L55.5845 29.998C56.0912 30.4413 56.7372 30.8087 57.5225 31.1C58.3079 31.3913 59.1249 31.537 59.9735 31.537C60.7462 31.537 61.3732 31.4483 61.8545 31.271C62.3359 31.0937 62.6905 30.853 62.9185 30.549C63.1465 30.2323 63.2605 29.8777 63.2605 29.485C63.2605 29.029 63.1085 28.6617 62.8045 28.383C62.5132 28.1043 62.1269 27.8827 61.6455 27.718C61.1769 27.5407 60.6575 27.3887 60.0875 27.262C59.5175 27.1353 58.9412 26.9897 58.3585 26.825C57.7885 26.6477 57.2629 26.426 56.7815 26.16C56.3129 25.894 55.9329 25.5393 55.6415 25.096C55.3502 24.64 55.2045 24.0573 55.2045 23.348C55.2045 22.664 55.3819 22.037 55.7365 21.467C56.1039 20.8843 56.6612 20.422 57.4085 20.08C58.1685 19.7253 59.1312 19.548 60.2965 19.548C61.0692 19.548 61.8355 19.6493 62.5955 19.852C63.3555 20.0547 64.0142 20.346 64.5715 20.726L63.9445 22.246C63.3745 21.866 62.7729 21.5937 62.1395 21.429C61.5062 21.2517 60.8919 21.163 60.2965 21.163C59.5492 21.163 58.9349 21.258 58.4535 21.448C57.9722 21.638 57.6175 21.8913 57.3895 22.208C57.1742 22.5247 57.0665 22.8793 57.0665 23.272C57.0665 23.7407 57.2122 24.1143 57.5035 24.393C57.8075 24.6717 58.1939 24.8933 58.6625 25.058C59.1439 25.2227 59.6695 25.3747 60.2395 25.514C60.8095 25.6407 61.3795 25.7863 61.9495 25.951C62.5322 26.1157 63.0579 26.331 63.5265 26.597C64.0079 26.863 64.3942 27.2177 64.6855 27.661C64.9769 28.1043 65.1225 28.6743 65.1225 29.371C65.1225 30.0423 64.9389 30.6693 64.5715 31.252C64.2042 31.822 63.6342 32.2843 62.8615 32.639C62.1015 32.981 61.1389 33.152 59.9735 33.152ZM71.0903 33.114C70.077 33.114 69.2917 32.8417 68.7343 32.297C68.177 31.7523 67.8983 30.9733 67.8983 29.96V20.726H69.7223V29.884C69.7223 30.4287 69.8553 30.8467 70.1213 31.138C70.4 31.4293 70.7927 31.575 71.2993 31.575C71.8693 31.575 72.3443 31.4167 72.7243 31.1L73.2943 32.411C73.0157 32.6517 72.68 32.829 72.2873 32.943C71.9073 33.057 71.5083 33.114 71.0903 33.114ZM66.1883 24.431V22.93H72.6103V24.431H66.1883ZM79.7365 33.114C78.8752 33.114 78.1152 32.9557 77.4565 32.639C76.8105 32.3223 76.3038 31.841 75.9365 31.195C75.5818 30.5363 75.4045 29.713 75.4045 28.725V22.93H77.2285V28.516C77.2285 29.504 77.4628 30.245 77.9315 30.739C78.4128 31.233 79.0842 31.48 79.9455 31.48C80.5788 31.48 81.1298 31.3533 81.5985 31.1C82.0672 30.834 82.4282 30.454 82.6815 29.96C82.9348 29.4533 83.0615 28.8453 83.0615 28.136V22.93H84.8855V33H83.1565V30.283L83.4415 31.005C83.1122 31.6763 82.6182 32.1957 81.9595 32.563C81.3008 32.9303 80.5598 33.114 79.7365 33.114ZM92.5189 33.114C91.5436 33.114 90.6696 32.8987 89.8969 32.468C89.1369 32.0373 88.5352 31.4357 88.0919 30.663C87.6486 29.8903 87.4269 28.991 87.4269 27.965C87.4269 26.939 87.6486 26.046 88.0919 25.286C88.5352 24.5133 89.1369 23.9117 89.8969 23.481C90.6696 23.0503 91.5436 22.835 92.5189 22.835C93.3676 22.835 94.1339 23.025 94.8179 23.405C95.5019 23.785 96.0466 24.355 96.4519 25.115C96.8699 25.875 97.0789 26.825 97.0789 27.965C97.0789 29.105 96.8762 30.055 96.4709 30.815C96.0782 31.575 95.5399 32.1513 94.8559 32.544C94.1719 32.924 93.3929 33.114 92.5189 33.114ZM92.6709 31.518C93.3042 31.518 93.8742 31.3723 94.3809 31.081C94.9002 30.7897 95.3056 30.378 95.5969 29.846C95.9009 29.3013 96.0529 28.6743 96.0529 27.965C96.0529 27.243 95.9009 26.6223 95.5969 26.103C95.3056 25.571 94.9002 25.1593 94.3809 24.868C93.8742 24.5767 93.3042 24.431 92.6709 24.431C92.0249 24.431 91.4486 24.5767 90.9419 24.868C90.4352 25.1593 90.0299 25.571 89.7259 26.103C89.4219 26.6223 89.2699 27.243 89.2699 27.965C89.2699 28.6743 89.4219 29.3013 89.7259 29.846C90.0299 30.378 90.4352 30.7897 90.9419 31.081C91.4486 31.3723 92.0249 31.518 92.6709 31.518ZM96.1099 33V30.283L96.2239 27.946L96.0339 25.609V18.902H97.8579V33H96.1099ZM101.309 33V22.93H103.133V33H101.309ZM102.221 20.992C101.866 20.992 101.569 20.878 101.328 20.65C101.1 20.422 100.986 20.1433 100.986 19.814C100.986 19.472 101.1 19.187 101.328 18.959C101.569 18.731 101.866 18.617 102.221 18.617C102.576 18.617 102.867 18.731 103.095 18.959C103.336 19.1743 103.456 19.4467 103.456 19.776C103.456 20.118 103.342 20.4093 103.114 20.65C102.886 20.878 102.588 20.992 102.221 20.992ZM110.929 33.114C109.915 33.114 109.016 32.8923 108.231 32.449C107.445 32.0057 106.825 31.3977 106.369 30.625C105.913 29.8397 105.685 28.953 105.685 27.965C105.685 26.9643 105.913 26.0777 106.369 25.305C106.825 24.5323 107.445 23.9307 108.231 23.5C109.016 23.0567 109.915 22.835 110.929 22.835C111.929 22.835 112.822 23.0567 113.608 23.5C114.406 23.9307 115.026 24.5323 115.47 25.305C115.926 26.065 116.154 26.9517 116.154 27.965C116.154 28.9657 115.926 29.8523 115.47 30.625C115.026 31.3977 114.406 32.0057 113.608 32.449C112.822 32.8923 111.929 33.114 110.929 33.114ZM110.929 31.518C111.575 31.518 112.151 31.3723 112.658 31.081C113.177 30.7897 113.582 30.378 113.874 29.846C114.165 29.3013 114.311 28.6743 114.311 27.965C114.311 27.243 114.165 26.6223 113.874 26.103C113.582 25.571 113.177 25.1593 112.658 24.868C112.151 24.5767 111.575 24.431 110.929 24.431C110.283 24.431 109.706 24.5767 109.2 24.868C108.693 25.1593 108.288 25.571 107.984 26.103C107.68 26.6223 107.528 27.243 107.528 27.965C107.528 28.6743 107.68 29.3013 107.984 29.846C108.288 30.378 108.693 30.7897 109.2 31.081C109.706 31.3723 110.283 31.518 110.929 31.518ZM122.414 33L130.562 21.884V24.04L122.862 13.4H126.054L132.158 21.772L130.898 21.8L136.974 13.4H140.026L132.382 23.872V21.856L140.53 33H137.31L130.814 24.068H132.046L125.634 33H122.414Z" fill="white"/>
<defs>
<linearGradient id="paint0_linear_828_11" x1="0" y1="23" x2="47" y2="23" gradientUnits="userSpaceOnUse">
<stop stop-color="#FAD36F"/>
<stop offset="1" stop-color="#E0FF1F"/>
</linearGradient>
</defs>
</svg>
