<svg width="47" height="46" viewBox="0 0 47 46" fill="none" xmlns="http://www.w3.org/2000/svg">
<rect width="47" height="46" rx="13" fill="url(#paint0_linear_826_9)"/>
<path d="M11.6878 33L3.0638 13.4H6.0878L14.0118 31.488H12.2758L20.2558 13.4H23.0558L14.4598 33H11.6878ZM25.5552 33V13.4H33.1992C34.9166 13.4 36.3819 13.6707 37.5952 14.212C38.8086 14.7533 39.7419 15.5373 40.3952 16.564C41.0486 17.5907 41.3752 18.8133 41.3752 20.232C41.3752 21.6507 41.0486 22.8733 40.3952 23.9C39.7419 24.908 38.8086 25.6827 37.5952 26.224C36.3819 26.7653 34.9166 27.036 33.1992 27.036H27.0952L28.3552 25.748V33H25.5552ZM38.6592 33L33.6752 25.888H36.6712L41.7112 33H38.6592ZM28.3552 26.028L27.0952 24.656H33.1152C34.9072 24.656 36.2606 24.2733 37.1752 23.508C38.1086 22.724 38.5752 21.632 38.5752 20.232C38.5752 18.832 38.1086 17.7493 37.1752 16.984C36.2606 16.2187 34.9072 15.836 33.1152 15.836H27.0952L28.3552 14.436V26.028Z" fill="#1E1E1E"/>
<defs>
<linearGradient id="paint0_linear_826_9" x1="0" y1="23" x2="47" y2="23" gradientUnits="userSpaceOnUse">
<stop stop-color="#FAD36F"/>
<stop offset="1" stop-color="#E0FF1F"/>
</linearGradient>
</defs>
</svg>
